<mxfile host="app.diagrams.net" agent="Mozilla/5.0 (Windows NT 10.0; Win64; x64) AppleWebKit/537.36 (KHTML, like Gecko) Chrome/130.0.0.0 Safari/537.36" version="24.8.3">
  <diagram id="C5RBs43oDa-KdzZeNtuy" name="Page-1">
    <mxGraphModel grid="1" page="1" gridSize="10" guides="1" tooltips="1" connect="1" arrows="1" fold="1" pageScale="1" pageWidth="827" pageHeight="1169" math="0" shadow="0">
      <root>
        <mxCell id="WIyWlLk6GJQsqaUBKTNV-0" />
        <mxCell id="WIyWlLk6GJQsqaUBKTNV-1" parent="WIyWlLk6GJQsqaUBKTNV-0" />
        <mxCell id="q9UrmFjbQstU2wRroAio-48" style="edgeStyle=orthogonalEdgeStyle;rounded=0;orthogonalLoop=1;jettySize=auto;html=1;endArrow=block;endFill=0;dashed=1;targetPerimeterSpacing=3;strokeWidth=3;" edge="1" parent="WIyWlLk6GJQsqaUBKTNV-1" source="oLj8v_Cs-I64bkj5ZnjB-8" target="q9UrmFjbQstU2wRroAio-42">
          <mxGeometry relative="1" as="geometry">
            <mxPoint x="510" y="-50" as="targetPoint" />
            <Array as="points">
              <mxPoint x="187" y="70" />
              <mxPoint x="460" y="70" />
            </Array>
          </mxGeometry>
        </mxCell>
        <mxCell id="CI0wXf1N5m8Gd59wG75S-23" style="edgeStyle=orthogonalEdgeStyle;rounded=0;orthogonalLoop=1;jettySize=auto;html=1;dashed=1;strokeWidth=3;endArrow=block;endFill=0;" edge="1" parent="WIyWlLk6GJQsqaUBKTNV-1" source="oLj8v_Cs-I64bkj5ZnjB-8" target="CI0wXf1N5m8Gd59wG75S-9">
          <mxGeometry relative="1" as="geometry">
            <Array as="points">
              <mxPoint x="180" y="50" />
              <mxPoint x="-10" y="50" />
            </Array>
          </mxGeometry>
        </mxCell>
        <mxCell id="CI0wXf1N5m8Gd59wG75S-24" style="edgeStyle=orthogonalEdgeStyle;rounded=0;orthogonalLoop=1;jettySize=auto;html=1;dashed=1;strokeWidth=3;endArrow=block;endFill=0;" edge="1" parent="WIyWlLk6GJQsqaUBKTNV-1" source="oLj8v_Cs-I64bkj5ZnjB-8" target="CI0wXf1N5m8Gd59wG75S-14">
          <mxGeometry relative="1" as="geometry">
            <Array as="points">
              <mxPoint x="120" y="60" />
              <mxPoint x="-293" y="60" />
            </Array>
          </mxGeometry>
        </mxCell>
        <mxCell id="CI0wXf1N5m8Gd59wG75S-25" style="edgeStyle=orthogonalEdgeStyle;rounded=0;orthogonalLoop=1;jettySize=auto;html=1;dashed=1;strokeWidth=3;endArrow=block;endFill=0;" edge="1" parent="WIyWlLk6GJQsqaUBKTNV-1" source="oLj8v_Cs-I64bkj5ZnjB-8" target="CI0wXf1N5m8Gd59wG75S-6">
          <mxGeometry relative="1" as="geometry">
            <Array as="points">
              <mxPoint x="250" y="90" />
              <mxPoint x="250" y="90" />
            </Array>
          </mxGeometry>
        </mxCell>
        <mxCell id="oLj8v_Cs-I64bkj5ZnjB-8" value="Tabla" style="swimlane;fontStyle=1;align=center;verticalAlign=top;childLayout=stackLayout;horizontal=1;startSize=26;horizontalStack=0;resizeParent=1;resizeParentMax=0;resizeLast=0;collapsible=1;marginBottom=0;whiteSpace=wrap;html=1;fillColor=#dae8fc;strokeColor=#6c8ebf;" vertex="1" parent="WIyWlLk6GJQsqaUBKTNV-1">
          <mxGeometry x="-220" y="150" width="600" height="750" as="geometry" />
        </mxCell>
        <mxCell id="oLj8v_Cs-I64bkj5ZnjB-9" value="- columnas: List&amp;lt;Columnas&amp;lt;?&amp;gt;&amp;gt;&lt;div&gt;- etiquetasFilas: List&amp;lt;Etiqueta&amp;gt;&lt;/div&gt;&lt;div&gt;- etiquetasColumnas: List&amp;lt;Etiqueta&amp;gt;&lt;/div&gt;" style="text;strokeColor=none;fillColor=none;align=left;verticalAlign=top;spacingLeft=4;spacingRight=4;overflow=hidden;rotatable=0;points=[[0,0.5],[1,0.5]];portConstraint=eastwest;whiteSpace=wrap;html=1;" vertex="1" parent="oLj8v_Cs-I64bkj5ZnjB-8">
          <mxGeometry y="26" width="600" height="54" as="geometry" />
        </mxCell>
        <mxCell id="oLj8v_Cs-I64bkj5ZnjB-10" value="" style="line;strokeWidth=1;fillColor=none;align=left;verticalAlign=middle;spacingTop=-1;spacingLeft=3;spacingRight=3;rotatable=0;labelPosition=right;points=[];portConstraint=eastwest;strokeColor=inherit;" vertex="1" parent="oLj8v_Cs-I64bkj5ZnjB-8">
          <mxGeometry y="80" width="600" height="8" as="geometry" />
        </mxCell>
        <mxCell id="oLj8v_Cs-I64bkj5ZnjB-25" value="&lt;span id=&quot;docs-internal-guid-390aeb77-7fff-f92b-782c-c8a7b1c5136b&quot;&gt;&lt;p style=&quot;line-height:1.38;margin-top:0pt;margin-bottom:0pt;&quot; dir=&quot;ltr&quot;&gt;&lt;span style=&quot;font-size: 11pt; font-family: Arial, sans-serif; background-color: transparent; font-variant-numeric: normal; font-variant-east-asian: normal; font-variant-alternates: normal; font-variant-position: normal; vertical-align: baseline; white-space-collapse: preserve;&quot;&gt;+ agregarColumna(tipoDeDato: Class): void&lt;/span&gt;&lt;/p&gt;&lt;p style=&quot;line-height:1.38;margin-top:0pt;margin-bottom:0pt;&quot; dir=&quot;ltr&quot;&gt;&lt;span style=&quot;font-size: 11pt; font-family: Arial, sans-serif; background-color: transparent; font-variant-numeric: normal; font-variant-east-asian: normal; font-variant-alternates: normal; font-variant-position: normal; vertical-align: baseline; white-space-collapse: preserve;&quot;&gt;+ agregarColumna(tipoDeDato: Class, etiquetaColumna: Etiqueta): void&lt;/span&gt;&lt;/p&gt;&lt;p style=&quot;line-height:1.38;margin-top:0pt;margin-bottom:0pt;&quot; dir=&quot;ltr&quot;&gt;&lt;span style=&quot;font-size: 11pt; font-family: Arial, sans-serif; background-color: transparent; font-variant-numeric: normal; font-variant-east-asian: normal; font-variant-alternates: normal; font-variant-position: normal; vertical-align: baseline; white-space-collapse: preserve;&quot;&gt;+ eliminarColumna(e: Etiqueta): void&lt;/span&gt;&lt;/p&gt;&lt;p style=&quot;line-height:1.38;margin-top:0pt;margin-bottom:0pt;&quot; dir=&quot;ltr&quot;&gt;&lt;span style=&quot;font-size: 11pt; font-family: Arial, sans-serif; background-color: transparent; font-variant-numeric: normal; font-variant-east-asian: normal; font-variant-alternates: normal; font-variant-position: normal; vertical-align: baseline; white-space-collapse: preserve;&quot;&gt;+ agregarFila() : void&lt;/span&gt;&lt;/p&gt;&lt;p style=&quot;line-height:1.38;margin-top:0pt;margin-bottom:0pt;&quot; dir=&quot;ltr&quot;&gt;&lt;span style=&quot;font-size: 11pt; font-family: Arial, sans-serif; background-color: transparent; font-variant-numeric: normal; font-variant-east-asian: normal; font-variant-alternates: normal; font-variant-position: normal; vertical-align: baseline; white-space-collapse: preserve;&quot;&gt;+ agregarFila(celdas: List&amp;lt;Celda&amp;lt;?&amp;gt;&amp;gt;): void&lt;/span&gt;&lt;/p&gt;&lt;p style=&quot;line-height:1.38;margin-top:0pt;margin-bottom:0pt;&quot; dir=&quot;ltr&quot;&gt;&lt;span style=&quot;font-size: 11pt; font-family: Arial, sans-serif; background-color: transparent; font-variant-numeric: normal; font-variant-east-asian: normal; font-variant-alternates: normal; font-variant-position: normal; vertical-align: baseline; white-space-collapse: preserve;&quot;&gt;+ agregarFila(celdas: List&amp;lt;Celda&amp;lt;?&amp;gt;&amp;gt; , etiquetaFila: Etiqueta): void&lt;/span&gt;&lt;/p&gt;&lt;p style=&quot;line-height:1.38;margin-top:0pt;margin-bottom:0pt;&quot; dir=&quot;ltr&quot;&gt;&lt;span style=&quot;font-size: 11pt; font-family: Arial, sans-serif; background-color: transparent; font-variant-numeric: normal; font-variant-east-asian: normal; font-variant-alternates: normal; font-variant-position: normal; vertical-align: baseline; white-space-collapse: preserve;&quot;&gt;- crearCeldaNula(tipo: Class&amp;lt;T&amp;gt;) : Celda&amp;lt;T&amp;gt;&lt;/span&gt;&lt;/p&gt;&lt;p style=&quot;line-height:1.38;margin-top:0pt;margin-bottom:0pt;&quot; dir=&quot;ltr&quot;&gt;&lt;span style=&quot;font-size: 11pt; font-family: Arial, sans-serif; background-color: transparent; font-variant-numeric: normal; font-variant-east-asian: normal; font-variant-alternates: normal; font-variant-position: normal; vertical-align: baseline; white-space-collapse: preserve;&quot;&gt;+eliminarFila(e : Etiqueta) : void&lt;/span&gt;&lt;/p&gt;&lt;p style=&quot;line-height:1.38;margin-top:0pt;margin-bottom:0pt;&quot; dir=&quot;ltr&quot;&gt;&lt;span style=&quot;font-size: 11pt; font-family: Arial, sans-serif; background-color: transparent; font-variant-numeric: normal; font-variant-east-asian: normal; font-variant-alternates: normal; font-variant-position: normal; vertical-align: baseline; white-space-collapse: preserve;&quot;&gt;+ getFilaAcotada(etiquetaFila: Etiqueta, cantColumnas: int) : List&amp;lt;Celda&amp;lt;?&amp;gt;&amp;gt;&lt;/span&gt;&lt;/p&gt;&lt;p style=&quot;line-height:1.38;margin-top:0pt;margin-bottom:0pt;&quot; dir=&quot;ltr&quot;&gt;&lt;span style=&quot;font-size: 11pt; font-family: Arial, sans-serif; background-color: transparent; font-variant-numeric: normal; font-variant-east-asian: normal; font-variant-alternates: normal; font-variant-position: normal; vertical-align: baseline; white-space-collapse: preserve;&quot;&gt;+filaACadena(fila : List&amp;lt;Celda&amp;lt;?&amp;gt;&amp;gt;, maxLargoCadena: int) : String&lt;/span&gt;&lt;/p&gt;&lt;p style=&quot;line-height:1.38;margin-top:0pt;margin-bottom:0pt;&quot; dir=&quot;ltr&quot;&gt;&lt;span style=&quot;font-size: 11pt; font-family: Arial, sans-serif; background-color: transparent; font-variant-numeric: normal; font-variant-east-asian: normal; font-variant-alternates: normal; font-variant-position: normal; vertical-align: baseline; white-space-collapse: preserve;&quot;&gt;+ visualizar(maxFilas: int, maxColumnas:int, maxLargoCadena:int): void&lt;/span&gt;&lt;/p&gt;&lt;p style=&quot;line-height:1.38;margin-top:0pt;margin-bottom:0pt;&quot; dir=&quot;ltr&quot;&gt;&lt;span style=&quot;font-size: 11pt; font-family: Arial, sans-serif; background-color: transparent; font-variant-numeric: normal; font-variant-east-asian: normal; font-variant-alternates: normal; font-variant-position: normal; vertical-align: baseline; white-space-collapse: preserve;&quot;&gt;+ editarCelda(etiquetaFila:Etiqueta, etiquetaColumna: Etiqueta, valor:String) : void&lt;/span&gt;&lt;/p&gt;&lt;p style=&quot;line-height:1.38;margin-top:0pt;margin-bottom:0pt;&quot; dir=&quot;ltr&quot;&gt;&lt;span style=&quot;font-size: 11pt; font-family: Arial, sans-serif; background-color: transparent; font-variant-numeric: normal; font-variant-east-asian: normal; font-variant-alternates: normal; font-variant-position: normal; vertical-align: baseline; white-space-collapse: preserve;&quot;&gt;+ editarCelda(etiquetaFila:Etiqueta, etiquetaColumna: Etiqueta, valor:Number) : void&lt;/span&gt;&lt;/p&gt;&lt;p style=&quot;line-height:1.38;margin-top:0pt;margin-bottom:0pt;&quot; dir=&quot;ltr&quot;&gt;&lt;span style=&quot;font-size: 11pt; font-family: Arial, sans-serif; background-color: transparent; font-variant-numeric: normal; font-variant-east-asian: normal; font-variant-alternates: normal; font-variant-position: normal; vertical-align: baseline; white-space-collapse: preserve;&quot;&gt;+ editarCelda(etiquetaFila:Etiqueta, etiquetaColumna: Etiqueta, valor:boolean) : void&lt;/span&gt;&lt;/p&gt;&lt;p style=&quot;line-height:1.38;margin-top:0pt;margin-bottom:0pt;&quot; dir=&quot;ltr&quot;&gt;&lt;span style=&quot;font-size: 11pt; font-family: Arial, sans-serif; background-color: transparent; font-variant-numeric: normal; font-variant-east-asian: normal; font-variant-alternates: normal; font-variant-position: normal; vertical-align: baseline; white-space-collapse: preserve;&quot;&gt;+ volverNACelda(etiquetaFila : Etiqueta, etiquetaColumna:Etiqueta) : void&lt;/span&gt;&lt;/p&gt;&lt;p style=&quot;line-height:1.38;margin-top:0pt;margin-bottom:0pt;&quot; dir=&quot;ltr&quot;&gt;&lt;span style=&quot;font-size: 11pt; font-family: Arial, sans-serif; background-color: transparent; font-variant-numeric: normal; font-variant-east-asian: normal; font-variant-alternates: normal; font-variant-position: normal; vertical-align: baseline; white-space-collapse: preserve;&quot;&gt;+ getCelda(etiquetaFila : Etiqueta, etiquetaColumna:Etiqueta) : Celda&amp;lt;?&amp;gt;&lt;/span&gt;&lt;/p&gt;&lt;p style=&quot;line-height:1.38;margin-top:0pt;margin-bottom:0pt;&quot; dir=&quot;ltr&quot;&gt;&lt;span style=&quot;font-size: 11pt; font-family: Arial, sans-serif; background-color: transparent; font-variant-numeric: normal; font-variant-east-asian: normal; font-variant-alternates: normal; font-variant-position: normal; vertical-align: baseline; white-space-collapse: preserve;&quot;&gt;+ muestreo(porcentaje: float) : List&amp;lt;List&amp;lt;Celda&amp;lt;?&amp;gt;&amp;gt;&amp;gt;&lt;/span&gt;&lt;/p&gt;&lt;p style=&quot;line-height:1.38;margin-top:0pt;margin-bottom:0pt;&quot; dir=&quot;ltr&quot;&gt;&lt;span style=&quot;font-size: 11pt; font-family: Arial, sans-serif; background-color: transparent; font-variant-numeric: normal; font-variant-east-asian: normal; font-variant-alternates: normal; font-variant-position: normal; vertical-align: baseline; white-space-collapse: preserve;&quot;&gt;- elegirNFilas(tamanio: int, etiquetasFilas: List&amp;lt;Etiqueta&amp;gt;) : List&amp;lt;List&amp;lt;Celda&amp;lt;?&amp;gt;&amp;gt;&amp;gt;&lt;/span&gt;&lt;/p&gt;&lt;p style=&quot;line-height:1.38;margin-top:0pt;margin-bottom:0pt;&quot; dir=&quot;ltr&quot;&gt;&lt;span style=&quot;font-size: 11pt; font-family: Arial, sans-serif; background-color: transparent; font-variant-numeric: normal; font-variant-east-asian: normal; font-variant-alternates: normal; font-variant-position: normal; vertical-align: baseline; white-space-collapse: preserve;&quot;&gt;+ guardarTabla() : void&lt;/span&gt;&lt;/p&gt;&lt;p style=&quot;line-height:1.38;margin-top:0pt;margin-bottom:0pt;&quot; dir=&quot;ltr&quot;&gt;&lt;span style=&quot;font-size: 11pt; font-family: Arial, sans-serif; background-color: transparent; font-variant-numeric: normal; font-variant-east-asian: normal; font-variant-alternates: normal; font-variant-position: normal; vertical-align: baseline; white-space-collapse: preserve;&quot;&gt;+ getFila(etiquetaFila: Etiqueta) : List&amp;lt;Celda&amp;lt;?&amp;gt;&amp;gt;&lt;/span&gt;&lt;/p&gt;&lt;p style=&quot;line-height:1.38;margin-top:0pt;margin-bottom:0pt;&quot; dir=&quot;ltr&quot;&gt;&lt;span style=&quot;font-size: 11pt; font-family: Arial, sans-serif; background-color: transparent; font-variant-numeric: normal; font-variant-east-asian: normal; font-variant-alternates: normal; font-variant-position: normal; vertical-align: baseline; white-space-collapse: preserve;&quot;&gt;+ getColumna(etiquetaColumna: Etiqueta) : Columna&amp;lt;T&amp;gt;&lt;/span&gt;&lt;/p&gt;&lt;p style=&quot;line-height:1.38;margin-top:0pt;margin-bottom:0pt;&quot; dir=&quot;ltr&quot;&gt;&lt;span style=&quot;font-size: 11pt; font-family: Arial, sans-serif; background-color: transparent; font-variant-numeric: normal; font-variant-east-asian: normal; font-variant-alternates: normal; font-variant-position: normal; vertical-align: baseline; white-space-collapse: preserve;&quot;&gt;- getIndex(etiqueta: Etiqueta, etiquetas: List&amp;lt;Etiqueta&amp;gt;) : int&lt;/span&gt;&lt;/p&gt;&lt;p style=&quot;line-height:1.38;margin-top:0pt;margin-bottom:0pt;&quot; dir=&quot;ltr&quot;&gt;&lt;span style=&quot;font-size: 11pt; font-family: Arial, sans-serif; background-color: transparent; font-variant-numeric: normal; font-variant-east-asian: normal; font-variant-alternates: normal; font-variant-position: normal; vertical-align: baseline; white-space-collapse: preserve;&quot;&gt;+ getEtiquetasFilas() : List&amp;lt;Etiqueta&amp;gt;&lt;/span&gt;&lt;/p&gt;&lt;p style=&quot;line-height:1.38;margin-top:0pt;margin-bottom:0pt;&quot; dir=&quot;ltr&quot;&gt;&lt;span style=&quot;font-size: 11pt; font-family: Arial, sans-serif; background-color: transparent; font-variant-numeric: normal; font-variant-east-asian: normal; font-variant-alternates: normal; font-variant-position: normal; vertical-align: baseline; white-space-collapse: preserve;&quot;&gt;+ getColumnas() : List&amp;lt;Columna&amp;lt;?&amp;gt;&amp;gt;&lt;/span&gt;&lt;/p&gt;&lt;p style=&quot;line-height:1.38;margin-top:0pt;margin-bottom:0pt;&quot; dir=&quot;ltr&quot;&gt;&lt;span style=&quot;font-size: 11pt; font-family: Arial, sans-serif; background-color: transparent; font-variant-numeric: normal; font-variant-east-asian: normal; font-variant-alternates: normal; font-variant-position: normal; vertical-align: baseline; white-space-collapse: preserve;&quot;&gt;+ getCantidadFilas() : int&lt;/span&gt;&lt;/p&gt;&lt;p style=&quot;line-height:1.38;margin-top:0pt;margin-bottom:0pt;&quot; dir=&quot;ltr&quot;&gt;&lt;span style=&quot;font-size: 11pt; font-family: Arial, sans-serif; background-color: transparent; font-variant-numeric: normal; font-variant-east-asian: normal; font-variant-alternates: normal; font-variant-position: normal; vertical-align: baseline; white-space-collapse: preserve;&quot;&gt;+ getEtiquetasColumnas() : List&amp;lt;Etiqueta&amp;gt;&lt;/span&gt;&lt;/p&gt;&lt;p style=&quot;line-height:1.38;margin-top:0pt;margin-bottom:0pt;&quot; dir=&quot;ltr&quot;&gt;&lt;span style=&quot;font-size: 11pt; font-family: Arial, sans-serif; background-color: transparent; font-variant-numeric: normal; font-variant-east-asian: normal; font-variant-alternates: normal; font-variant-position: normal; vertical-align: baseline; white-space-collapse: preserve;&quot;&gt;+ getCantidadColumnas() : int&lt;/span&gt;&lt;/p&gt;&lt;p style=&quot;line-height:1.38;margin-top:0pt;margin-bottom:0pt;&quot; dir=&quot;ltr&quot;&gt;&lt;span style=&quot;font-size: 11pt; font-family: Arial, sans-serif; background-color: transparent; font-variant-numeric: normal; font-variant-east-asian: normal; font-variant-alternates: normal; font-variant-position: normal; vertical-align: baseline; white-space-collapse: preserve;&quot;&gt;+ agruparPor(etiquetasColumnas: List&amp;lt;Etiqueta&amp;gt;) : Map&amp;lt;List&amp;lt;Object&amp;gt;, List&amp;lt;Integer&amp;gt;&amp;gt;&lt;/span&gt;&lt;/p&gt;&lt;p style=&quot;line-height:1.38;margin-top:0pt;margin-bottom:0pt;&quot; dir=&quot;ltr&quot;&gt;&lt;span style=&quot;font-size: 11pt; font-family: Arial, sans-serif; background-color: transparent; font-variant-numeric: normal; font-variant-east-asian: normal; font-variant-alternates: normal; font-variant-position: normal; vertical-align: baseline; white-space-collapse: preserve;&quot;&gt;+ aplicarOperaciones(grupos: Map&amp;lt;List&amp;lt;Object&amp;gt;, List&amp;lt;Integer&amp;gt;&amp;gt;, operacion: String) : Tabla&lt;/span&gt;&lt;/p&gt;&lt;p style=&quot;line-height:1.38;margin-top:0pt;margin-bottom:0pt;&quot; dir=&quot;ltr&quot;&gt;&lt;span style=&quot;font-size: 11pt; font-family: Arial, sans-serif; background-color: transparent; font-variant-numeric: normal; font-variant-east-asian: normal; font-variant-alternates: normal; font-variant-position: normal; vertical-align: baseline; white-space-collapse: preserve;&quot;&gt;+ ordenarPor(etiquetasColumnas: List&amp;lt;Etiqueta&amp;gt;, ascendente: boolean) : void&lt;/span&gt;&lt;/p&gt;&lt;p style=&quot;line-height:1.38;margin-top:0pt;margin-bottom:0pt;&quot; dir=&quot;ltr&quot;&gt;&lt;span style=&quot;font-size: 11pt; font-family: Arial, sans-serif; background-color: transparent; font-variant-numeric: normal; font-variant-east-asian: normal; font-variant-alternates: normal; font-variant-position: normal; vertical-align: baseline; white-space-collapse: preserve;&quot;&gt;- setCeldasGenerico(columna: Columna&amp;lt;T&amp;gt;, celdasOrdenadas: List&amp;lt;Celda&amp;lt;?&amp;gt;&amp;gt;) : void&lt;/span&gt;&lt;/p&gt;&lt;p style=&quot;line-height:1.38;margin-top:0pt;margin-bottom:0pt;&quot; dir=&quot;ltr&quot;&gt;&lt;span style=&quot;font-size: 11pt; font-family: Arial, sans-serif; background-color: transparent; font-variant-numeric: normal; font-variant-east-asian: normal; font-variant-alternates: normal; font-variant-position: normal; vertical-align: baseline; white-space-collapse: preserve;&quot;&gt;+ filtrar(filtros: List&amp;lt;Filtro&amp;lt;T&amp;gt;&amp;gt;) : Tabla&lt;/span&gt;&lt;/p&gt;&lt;div&gt;&lt;span style=&quot;font-size: 11pt; font-family: Arial, sans-serif; background-color: transparent; font-variant-numeric: normal; font-variant-east-asian: normal; font-variant-alternates: normal; font-variant-position: normal; vertical-align: baseline; white-space-collapse: preserve;&quot;&gt;&lt;br&gt;&lt;/span&gt;&lt;/div&gt;&lt;/span&gt;" style="text;strokeColor=none;fillColor=none;align=left;verticalAlign=top;spacingLeft=4;spacingRight=4;overflow=hidden;rotatable=0;points=[[0,0.5],[1,0.5]];portConstraint=eastwest;whiteSpace=wrap;html=1;" vertex="1" parent="oLj8v_Cs-I64bkj5ZnjB-8">
          <mxGeometry y="88" width="600" height="662" as="geometry" />
        </mxCell>
        <mxCell id="oLj8v_Cs-I64bkj5ZnjB-16" value="Celda" style="swimlane;fontStyle=1;align=center;verticalAlign=top;childLayout=stackLayout;horizontal=1;startSize=26;horizontalStack=0;resizeParent=1;resizeParentMax=0;resizeLast=0;collapsible=1;marginBottom=0;whiteSpace=wrap;html=1;fillColor=#dae8fc;strokeColor=#6c8ebf;" vertex="1" parent="WIyWlLk6GJQsqaUBKTNV-1">
          <mxGeometry x="730" y="-10" width="170" height="160" as="geometry" />
        </mxCell>
        <mxCell id="oLj8v_Cs-I64bkj5ZnjB-17" value="- valor: type" style="text;strokeColor=none;fillColor=none;align=left;verticalAlign=top;spacingLeft=4;spacingRight=4;overflow=hidden;rotatable=0;points=[[0,0.5],[1,0.5]];portConstraint=eastwest;whiteSpace=wrap;html=1;" vertex="1" parent="oLj8v_Cs-I64bkj5ZnjB-16">
          <mxGeometry y="26" width="170" height="26" as="geometry" />
        </mxCell>
        <mxCell id="oLj8v_Cs-I64bkj5ZnjB-18" value="" style="line;strokeWidth=1;fillColor=none;align=left;verticalAlign=middle;spacingTop=-1;spacingLeft=3;spacingRight=3;rotatable=0;labelPosition=right;points=[];portConstraint=eastwest;strokeColor=inherit;" vertex="1" parent="oLj8v_Cs-I64bkj5ZnjB-16">
          <mxGeometry y="52" width="170" height="10" as="geometry" />
        </mxCell>
        <mxCell id="ZFso6s3Zh3TI1tPXcgcM-4" value="+ esNA(): boolean&lt;div&gt;+ getTipo(): String&lt;/div&gt;&lt;div&gt;+ hacerNA(): void&lt;/div&gt;&lt;div&gt;+ getValor(): type&lt;/div&gt;&lt;div&gt;+ cambiarValor(): void&lt;/div&gt;&lt;div&gt;+ volverNA(): void&lt;/div&gt;" style="text;strokeColor=none;fillColor=none;align=left;verticalAlign=top;spacingLeft=4;spacingRight=4;overflow=hidden;rotatable=0;points=[[0,0.5],[1,0.5]];portConstraint=eastwest;whiteSpace=wrap;html=1;" vertex="1" parent="oLj8v_Cs-I64bkj5ZnjB-16">
          <mxGeometry y="62" width="170" height="98" as="geometry" />
        </mxCell>
        <mxCell id="q9UrmFjbQstU2wRroAio-51" style="edgeStyle=orthogonalEdgeStyle;rounded=0;orthogonalLoop=1;jettySize=auto;html=1;dashed=1;strokeWidth=3;endArrow=block;endFill=0;" edge="1" parent="WIyWlLk6GJQsqaUBKTNV-1" source="oLj8v_Cs-I64bkj5ZnjB-39" target="q9UrmFjbQstU2wRroAio-42">
          <mxGeometry relative="1" as="geometry">
            <mxPoint x="560" y="-50" as="targetPoint" />
            <Array as="points">
              <mxPoint x="510" y="432" />
            </Array>
          </mxGeometry>
        </mxCell>
        <mxCell id="oLj8v_Cs-I64bkj5ZnjB-39" value="Columna" style="swimlane;fontStyle=1;align=center;verticalAlign=top;childLayout=stackLayout;horizontal=1;startSize=26;horizontalStack=0;resizeParent=1;resizeParentMax=0;resizeLast=0;collapsible=1;marginBottom=0;whiteSpace=wrap;html=1;fillColor=#dae8fc;strokeColor=#6c8ebf;" vertex="1" parent="WIyWlLk6GJQsqaUBKTNV-1">
          <mxGeometry x="660" y="320" width="290" height="224" as="geometry" />
        </mxCell>
        <mxCell id="oLj8v_Cs-I64bkj5ZnjB-40" value="- celdas: List&amp;lt;Celda&amp;lt;T&amp;gt;&amp;gt;" style="text;strokeColor=none;fillColor=none;align=left;verticalAlign=top;spacingLeft=4;spacingRight=4;overflow=hidden;rotatable=0;points=[[0,0.5],[1,0.5]];portConstraint=eastwest;whiteSpace=wrap;html=1;" vertex="1" parent="oLj8v_Cs-I64bkj5ZnjB-39">
          <mxGeometry y="26" width="290" height="34" as="geometry" />
        </mxCell>
        <mxCell id="xTgTQjscUqH2USl0DPqA-5" value="- etiqueta: Etiqueta" style="text;strokeColor=none;fillColor=none;align=left;verticalAlign=top;spacingLeft=4;spacingRight=4;overflow=hidden;rotatable=0;points=[[0,0.5],[1,0.5]];portConstraint=eastwest;whiteSpace=wrap;html=1;" vertex="1" parent="oLj8v_Cs-I64bkj5ZnjB-39">
          <mxGeometry y="60" width="290" height="30" as="geometry" />
        </mxCell>
        <mxCell id="vMWLNOjbn0Jhq4H17jPL-13" value="- tipoDeDato: Class&amp;lt;T&amp;gt;" style="text;strokeColor=none;fillColor=none;align=left;verticalAlign=top;spacingLeft=4;spacingRight=4;overflow=hidden;rotatable=0;points=[[0,0.5],[1,0.5]];portConstraint=eastwest;whiteSpace=wrap;html=1;" vertex="1" parent="oLj8v_Cs-I64bkj5ZnjB-39">
          <mxGeometry y="90" width="290" height="30" as="geometry" />
        </mxCell>
        <mxCell id="ZFso6s3Zh3TI1tPXcgcM-0" value="" style="line;strokeWidth=1;fillColor=none;align=left;verticalAlign=middle;spacingTop=-1;spacingLeft=3;spacingRight=3;rotatable=0;labelPosition=right;points=[];portConstraint=eastwest;strokeColor=inherit;" vertex="1" parent="oLj8v_Cs-I64bkj5ZnjB-39">
          <mxGeometry y="120" width="290" height="8" as="geometry" />
        </mxCell>
        <mxCell id="ZFso6s3Zh3TI1tPXcgcM-1" value="+ agregarCelda(): void" style="text;strokeColor=none;fillColor=none;align=left;verticalAlign=top;spacingLeft=4;spacingRight=4;overflow=hidden;rotatable=0;points=[[0,0.5],[1,0.5]];portConstraint=eastwest;whiteSpace=wrap;html=1;" vertex="1" parent="oLj8v_Cs-I64bkj5ZnjB-39">
          <mxGeometry y="128" width="290" height="32" as="geometry" />
        </mxCell>
        <mxCell id="vMWLNOjbn0Jhq4H17jPL-14" value="+ getEtiqueta: Etiqueta" style="text;strokeColor=none;fillColor=none;align=left;verticalAlign=top;spacingLeft=4;spacingRight=4;overflow=hidden;rotatable=0;points=[[0,0.5],[1,0.5]];portConstraint=eastwest;whiteSpace=wrap;html=1;" vertex="1" parent="oLj8v_Cs-I64bkj5ZnjB-39">
          <mxGeometry y="160" width="290" height="32" as="geometry" />
        </mxCell>
        <mxCell id="vMWLNOjbn0Jhq4H17jPL-15" value="+ getTipoDeDato(): Class&amp;lt;T&amp;gt;" style="text;strokeColor=none;fillColor=none;align=left;verticalAlign=top;spacingLeft=4;spacingRight=4;overflow=hidden;rotatable=0;points=[[0,0.5],[1,0.5]];portConstraint=eastwest;whiteSpace=wrap;html=1;" vertex="1" parent="oLj8v_Cs-I64bkj5ZnjB-39">
          <mxGeometry y="192" width="290" height="32" as="geometry" />
        </mxCell>
        <mxCell id="q9UrmFjbQstU2wRroAio-12" style="edgeStyle=orthogonalEdgeStyle;rounded=0;orthogonalLoop=1;jettySize=auto;html=1;endArrow=diamond;endFill=1;endSize=10;exitX=0;exitY=0.5;exitDx=0;exitDy=0;entryX=1.004;entryY=0.336;entryDx=0;entryDy=0;entryPerimeter=0;" edge="1" parent="WIyWlLk6GJQsqaUBKTNV-1" source="ZFso6s3Zh3TI1tPXcgcM-1" target="oLj8v_Cs-I64bkj5ZnjB-25">
          <mxGeometry relative="1" as="geometry">
            <Array as="points">
              <mxPoint x="662" y="464" />
              <mxPoint x="662" y="460" />
            </Array>
          </mxGeometry>
        </mxCell>
        <mxCell id="q9UrmFjbQstU2wRroAio-16" value="&lt;font style=&quot;font-size: 15px;&quot;&gt;1&lt;/font&gt;" style="edgeLabel;html=1;align=center;verticalAlign=middle;resizable=0;points=[];" connectable="0" vertex="1" parent="q9UrmFjbQstU2wRroAio-12">
          <mxGeometry x="0.4954" y="5" relative="1" as="geometry">
            <mxPoint as="offset" />
          </mxGeometry>
        </mxCell>
        <mxCell id="q9UrmFjbQstU2wRroAio-17" value="1..*" style="edgeLabel;html=1;align=center;verticalAlign=middle;resizable=0;points=[];fontSize=19;" connectable="0" vertex="1" parent="q9UrmFjbQstU2wRroAio-12">
          <mxGeometry x="-0.7992" y="2" relative="1" as="geometry">
            <mxPoint x="-1" as="offset" />
          </mxGeometry>
        </mxCell>
        <mxCell id="q9UrmFjbQstU2wRroAio-13" style="edgeStyle=orthogonalEdgeStyle;rounded=0;orthogonalLoop=1;jettySize=auto;html=1;endArrow=diamond;endFill=1;endSize=9;exitX=0.437;exitY=1.011;exitDx=0;exitDy=0;exitPerimeter=0;" edge="1" parent="WIyWlLk6GJQsqaUBKTNV-1" source="ZFso6s3Zh3TI1tPXcgcM-4" target="oLj8v_Cs-I64bkj5ZnjB-39">
          <mxGeometry relative="1" as="geometry">
            <mxPoint x="550" y="124" as="targetPoint" />
            <Array as="points">
              <mxPoint x="804" y="250" />
              <mxPoint x="804" y="250" />
            </Array>
          </mxGeometry>
        </mxCell>
        <mxCell id="q9UrmFjbQstU2wRroAio-18" value="1" style="edgeLabel;html=1;align=center;verticalAlign=middle;resizable=0;points=[];fontSize=16;" connectable="0" vertex="1" parent="q9UrmFjbQstU2wRroAio-13">
          <mxGeometry x="0.6517" y="-3" relative="1" as="geometry">
            <mxPoint as="offset" />
          </mxGeometry>
        </mxCell>
        <mxCell id="q9UrmFjbQstU2wRroAio-19" value="1--*" style="edgeLabel;html=1;align=center;verticalAlign=middle;resizable=0;points=[];fontSize=15;" connectable="0" vertex="1" parent="q9UrmFjbQstU2wRroAio-13">
          <mxGeometry x="-0.796" relative="1" as="geometry">
            <mxPoint x="-1" as="offset" />
          </mxGeometry>
        </mxCell>
        <mxCell id="q9UrmFjbQstU2wRroAio-42" value="&amp;lt;interfaz&amp;gt; Visualizable" style="swimlane;fontStyle=1;align=center;verticalAlign=top;childLayout=stackLayout;horizontal=1;startSize=26;horizontalStack=0;resizeParent=1;resizeParentMax=0;resizeLast=0;collapsible=1;marginBottom=0;whiteSpace=wrap;html=1;fillColor=#dae8fc;strokeColor=#6c8ebf;" vertex="1" parent="WIyWlLk6GJQsqaUBKTNV-1">
          <mxGeometry x="400" y="-120" width="240" height="62" as="geometry" />
        </mxCell>
        <mxCell id="q9UrmFjbQstU2wRroAio-46" value="+ MostrarEnPantalla(): void" style="text;strokeColor=none;fillColor=none;align=left;verticalAlign=top;spacingLeft=4;spacingRight=4;overflow=hidden;rotatable=0;points=[[0,0.5],[1,0.5]];portConstraint=eastwest;whiteSpace=wrap;html=1;" vertex="1" parent="q9UrmFjbQstU2wRroAio-42">
          <mxGeometry y="26" width="240" height="26" as="geometry" />
        </mxCell>
        <mxCell id="q9UrmFjbQstU2wRroAio-47" value="" style="line;strokeWidth=1;fillColor=none;align=left;verticalAlign=middle;spacingTop=-1;spacingLeft=3;spacingRight=3;rotatable=0;labelPosition=right;points=[];portConstraint=eastwest;strokeColor=inherit;" vertex="1" parent="q9UrmFjbQstU2wRroAio-42">
          <mxGeometry y="52" width="240" height="10" as="geometry" />
        </mxCell>
        <mxCell id="q9UrmFjbQstU2wRroAio-50" style="edgeStyle=orthogonalEdgeStyle;rounded=0;orthogonalLoop=1;jettySize=auto;html=1;entryX=1.014;entryY=0.181;entryDx=0;entryDy=0;entryPerimeter=0;dashed=1;strokeWidth=3;endArrow=block;endFill=0;" edge="1" parent="WIyWlLk6GJQsqaUBKTNV-1" source="oLj8v_Cs-I64bkj5ZnjB-16" target="q9UrmFjbQstU2wRroAio-46">
          <mxGeometry relative="1" as="geometry" />
        </mxCell>
        <mxCell id="CI0wXf1N5m8Gd59wG75S-6" value="&amp;lt;interfaz&amp;gt; Filtrable" style="swimlane;fontStyle=1;align=center;verticalAlign=top;childLayout=stackLayout;horizontal=1;startSize=26;horizontalStack=0;resizeParent=1;resizeParentMax=0;resizeLast=0;collapsible=1;marginBottom=0;whiteSpace=wrap;html=1;fillColor=#dae8fc;strokeColor=#6c8ebf;" vertex="1" parent="WIyWlLk6GJQsqaUBKTNV-1">
          <mxGeometry x="130" y="-120" width="240" height="104" as="geometry" />
        </mxCell>
        <mxCell id="CI0wXf1N5m8Gd59wG75S-7" value="+ Filtrar(etiquetaCol,valor): Tabla" style="text;strokeColor=none;fillColor=none;align=left;verticalAlign=top;spacingLeft=4;spacingRight=4;overflow=hidden;rotatable=0;points=[[0,0.5],[1,0.5]];portConstraint=eastwest;whiteSpace=wrap;html=1;" vertex="1" parent="CI0wXf1N5m8Gd59wG75S-6">
          <mxGeometry y="26" width="240" height="26" as="geometry" />
        </mxCell>
        <mxCell id="CI0wXf1N5m8Gd59wG75S-12" value="+ Filtrar(etiquetaCol): Tabla" style="text;strokeColor=none;fillColor=none;align=left;verticalAlign=top;spacingLeft=4;spacingRight=4;overflow=hidden;rotatable=0;points=[[0,0.5],[1,0.5]];portConstraint=eastwest;whiteSpace=wrap;html=1;" vertex="1" parent="CI0wXf1N5m8Gd59wG75S-6">
          <mxGeometry y="52" width="240" height="26" as="geometry" />
        </mxCell>
        <mxCell id="CI0wXf1N5m8Gd59wG75S-17" value="+ Filtrar(etiquetaFila): Tabla" style="text;strokeColor=none;fillColor=none;align=left;verticalAlign=top;spacingLeft=4;spacingRight=4;overflow=hidden;rotatable=0;points=[[0,0.5],[1,0.5]];portConstraint=eastwest;whiteSpace=wrap;html=1;" vertex="1" parent="CI0wXf1N5m8Gd59wG75S-6">
          <mxGeometry y="78" width="240" height="26" as="geometry" />
        </mxCell>
        <mxCell id="CI0wXf1N5m8Gd59wG75S-9" value="&amp;lt;interfaz&amp;gt; Agrupable" style="swimlane;fontStyle=1;align=center;verticalAlign=top;childLayout=stackLayout;horizontal=1;startSize=26;horizontalStack=0;resizeParent=1;resizeParentMax=0;resizeLast=0;collapsible=1;marginBottom=0;whiteSpace=wrap;html=1;fillColor=#dae8fc;strokeColor=#6c8ebf;" vertex="1" parent="WIyWlLk6GJQsqaUBKTNV-1">
          <mxGeometry x="-130" y="-160" width="240" height="52" as="geometry" />
        </mxCell>
        <mxCell id="CI0wXf1N5m8Gd59wG75S-10" value="&lt;div&gt;+ groupBy(List&amp;lt;Etiquetas&amp;gt;):&amp;nbsp;&amp;nbsp;&lt;/div&gt;" style="text;strokeColor=none;fillColor=none;align=left;verticalAlign=top;spacingLeft=4;spacingRight=4;overflow=hidden;rotatable=0;points=[[0,0.5],[1,0.5]];portConstraint=eastwest;whiteSpace=wrap;html=1;" vertex="1" parent="CI0wXf1N5m8Gd59wG75S-9">
          <mxGeometry y="26" width="240" height="26" as="geometry" />
        </mxCell>
        <mxCell id="CI0wXf1N5m8Gd59wG75S-14" value="&amp;lt;interfaz&amp;gt; Ordenable" style="swimlane;fontStyle=1;align=center;verticalAlign=top;childLayout=stackLayout;horizontal=1;startSize=26;horizontalStack=0;resizeParent=1;resizeParentMax=0;resizeLast=0;collapsible=1;marginBottom=0;whiteSpace=wrap;html=1;fillColor=#dae8fc;strokeColor=#6c8ebf;" vertex="1" parent="WIyWlLk6GJQsqaUBKTNV-1">
          <mxGeometry x="-413" y="-120" width="240" height="52" as="geometry" />
        </mxCell>
        <mxCell id="CI0wXf1N5m8Gd59wG75S-15" value="+ ordenar(etiquetaCol): Tabla" style="text;strokeColor=none;fillColor=none;align=left;verticalAlign=top;spacingLeft=4;spacingRight=4;overflow=hidden;rotatable=0;points=[[0,0.5],[1,0.5]];portConstraint=eastwest;whiteSpace=wrap;html=1;" vertex="1" parent="CI0wXf1N5m8Gd59wG75S-14">
          <mxGeometry y="26" width="240" height="26" as="geometry" />
        </mxCell>
        <mxCell id="vMWLNOjbn0Jhq4H17jPL-0" value="Etiqueta" style="swimlane;fontStyle=1;align=center;verticalAlign=top;childLayout=stackLayout;horizontal=1;startSize=26;horizontalStack=0;resizeParent=1;resizeParentMax=0;resizeLast=0;collapsible=1;marginBottom=0;whiteSpace=wrap;html=1;fillColor=#dae8fc;strokeColor=#6c8ebf;" vertex="1" parent="WIyWlLk6GJQsqaUBKTNV-1">
          <mxGeometry x="-770" y="130" width="290" height="66" as="geometry" />
        </mxCell>
        <mxCell id="vMWLNOjbn0Jhq4H17jPL-3" value="" style="line;strokeWidth=1;fillColor=none;align=left;verticalAlign=middle;spacingTop=-1;spacingLeft=3;spacingRight=3;rotatable=0;labelPosition=right;points=[];portConstraint=eastwest;strokeColor=inherit;" vertex="1" parent="vMWLNOjbn0Jhq4H17jPL-0">
          <mxGeometry y="26" width="290" height="8" as="geometry" />
        </mxCell>
        <mxCell id="vMWLNOjbn0Jhq4H17jPL-4" value="+ getValor():Object" style="text;strokeColor=none;fillColor=none;align=left;verticalAlign=top;spacingLeft=4;spacingRight=4;overflow=hidden;rotatable=0;points=[[0,0.5],[1,0.5]];portConstraint=eastwest;whiteSpace=wrap;html=1;" vertex="1" parent="vMWLNOjbn0Jhq4H17jPL-0">
          <mxGeometry y="34" width="290" height="32" as="geometry" />
        </mxCell>
        <mxCell id="rRKHZuir2uSC1CLRZ-Ho-7" style="edgeStyle=orthogonalEdgeStyle;rounded=0;orthogonalLoop=1;jettySize=auto;html=1;exitX=0.5;exitY=0;exitDx=0;exitDy=0;entryX=0;entryY=0.5;entryDx=0;entryDy=0;strokeWidth=3;dashed=1;endArrow=block;endFill=0;" edge="1" parent="WIyWlLk6GJQsqaUBKTNV-1" source="vMWLNOjbn0Jhq4H17jPL-5" target="vMWLNOjbn0Jhq4H17jPL-4">
          <mxGeometry relative="1" as="geometry" />
        </mxCell>
        <mxCell id="vMWLNOjbn0Jhq4H17jPL-5" value="EtiquetaNumerica" style="swimlane;fontStyle=1;align=center;verticalAlign=top;childLayout=stackLayout;horizontal=1;startSize=26;horizontalStack=0;resizeParent=1;resizeParentMax=0;resizeLast=0;collapsible=1;marginBottom=0;whiteSpace=wrap;html=1;fillColor=#dae8fc;strokeColor=#6c8ebf;" vertex="1" parent="WIyWlLk6GJQsqaUBKTNV-1">
          <mxGeometry x="-990" y="340" width="290" height="92" as="geometry" />
        </mxCell>
        <mxCell id="vMWLNOjbn0Jhq4H17jPL-12" value="- valor: int" style="text;strokeColor=none;fillColor=none;align=left;verticalAlign=top;spacingLeft=4;spacingRight=4;overflow=hidden;rotatable=0;points=[[0,0.5],[1,0.5]];portConstraint=eastwest;whiteSpace=wrap;html=1;" vertex="1" parent="vMWLNOjbn0Jhq4H17jPL-5">
          <mxGeometry y="26" width="290" height="26" as="geometry" />
        </mxCell>
        <mxCell id="vMWLNOjbn0Jhq4H17jPL-6" value="" style="line;strokeWidth=1;fillColor=none;align=left;verticalAlign=middle;spacingTop=-1;spacingLeft=3;spacingRight=3;rotatable=0;labelPosition=right;points=[];portConstraint=eastwest;strokeColor=inherit;" vertex="1" parent="vMWLNOjbn0Jhq4H17jPL-5">
          <mxGeometry y="52" width="290" height="8" as="geometry" />
        </mxCell>
        <mxCell id="vMWLNOjbn0Jhq4H17jPL-7" value="+ getValor(): int" style="text;strokeColor=none;fillColor=none;align=left;verticalAlign=top;spacingLeft=4;spacingRight=4;overflow=hidden;rotatable=0;points=[[0,0.5],[1,0.5]];portConstraint=eastwest;whiteSpace=wrap;html=1;" vertex="1" parent="vMWLNOjbn0Jhq4H17jPL-5">
          <mxGeometry y="60" width="290" height="32" as="geometry" />
        </mxCell>
        <mxCell id="rRKHZuir2uSC1CLRZ-Ho-3" style="edgeStyle=orthogonalEdgeStyle;rounded=0;orthogonalLoop=1;jettySize=auto;html=1;exitX=0.5;exitY=0;exitDx=0;exitDy=0;entryX=1;entryY=0.5;entryDx=0;entryDy=0;dashed=1;endArrow=block;endFill=0;strokeWidth=4;" edge="1" parent="WIyWlLk6GJQsqaUBKTNV-1" source="vMWLNOjbn0Jhq4H17jPL-8" target="vMWLNOjbn0Jhq4H17jPL-4">
          <mxGeometry relative="1" as="geometry">
            <Array as="points">
              <mxPoint x="-375" y="180" />
            </Array>
          </mxGeometry>
        </mxCell>
        <mxCell id="rRKHZuir2uSC1CLRZ-Ho-8" style="edgeStyle=orthogonalEdgeStyle;rounded=0;orthogonalLoop=1;jettySize=auto;html=1;entryX=0;entryY=0.5;entryDx=0;entryDy=0;endArrow=diamond;endFill=1;strokeWidth=3;" edge="1" parent="WIyWlLk6GJQsqaUBKTNV-1" source="vMWLNOjbn0Jhq4H17jPL-8" target="oLj8v_Cs-I64bkj5ZnjB-25">
          <mxGeometry relative="1" as="geometry" />
        </mxCell>
        <mxCell id="vMWLNOjbn0Jhq4H17jPL-8" value="EtiquetaCadena" style="swimlane;fontStyle=1;align=center;verticalAlign=top;childLayout=stackLayout;horizontal=1;startSize=26;horizontalStack=0;resizeParent=1;resizeParentMax=0;resizeLast=0;collapsible=1;marginBottom=0;whiteSpace=wrap;html=1;fillColor=#dae8fc;strokeColor=#6c8ebf;" vertex="1" parent="WIyWlLk6GJQsqaUBKTNV-1">
          <mxGeometry x="-560" y="340" width="290" height="92" as="geometry" />
        </mxCell>
        <mxCell id="vMWLNOjbn0Jhq4H17jPL-11" value="- valor: String" style="text;strokeColor=none;fillColor=none;align=left;verticalAlign=top;spacingLeft=4;spacingRight=4;overflow=hidden;rotatable=0;points=[[0,0.5],[1,0.5]];portConstraint=eastwest;whiteSpace=wrap;html=1;" vertex="1" parent="vMWLNOjbn0Jhq4H17jPL-8">
          <mxGeometry y="26" width="290" height="26" as="geometry" />
        </mxCell>
        <mxCell id="vMWLNOjbn0Jhq4H17jPL-9" value="" style="line;strokeWidth=1;fillColor=none;align=left;verticalAlign=middle;spacingTop=-1;spacingLeft=3;spacingRight=3;rotatable=0;labelPosition=right;points=[];portConstraint=eastwest;strokeColor=inherit;" vertex="1" parent="vMWLNOjbn0Jhq4H17jPL-8">
          <mxGeometry y="52" width="290" height="8" as="geometry" />
        </mxCell>
        <mxCell id="vMWLNOjbn0Jhq4H17jPL-10" value="+ getValor():String" style="text;strokeColor=none;fillColor=none;align=left;verticalAlign=top;spacingLeft=4;spacingRight=4;overflow=hidden;rotatable=0;points=[[0,0.5],[1,0.5]];portConstraint=eastwest;whiteSpace=wrap;html=1;" vertex="1" parent="vMWLNOjbn0Jhq4H17jPL-8">
          <mxGeometry y="60" width="290" height="32" as="geometry" />
        </mxCell>
        <mxCell id="rRKHZuir2uSC1CLRZ-Ho-9" style="edgeStyle=orthogonalEdgeStyle;rounded=0;orthogonalLoop=1;jettySize=auto;html=1;entryX=-0.017;entryY=0.607;entryDx=0;entryDy=0;entryPerimeter=0;endArrow=diamondThin;endFill=1;strokeWidth=3;" edge="1" parent="WIyWlLk6GJQsqaUBKTNV-1" source="vMWLNOjbn0Jhq4H17jPL-5" target="oLj8v_Cs-I64bkj5ZnjB-25">
          <mxGeometry relative="1" as="geometry">
            <Array as="points">
              <mxPoint x="-845" y="640" />
            </Array>
          </mxGeometry>
        </mxCell>
        <mxCell id="rRKHZuir2uSC1CLRZ-Ho-10" value="&lt;font style=&quot;font-size: 15px;&quot;&gt;1&lt;/font&gt;" style="edgeLabel;html=1;align=center;verticalAlign=middle;resizable=0;points=[];" connectable="0" vertex="1" parent="WIyWlLk6GJQsqaUBKTNV-1">
          <mxGeometry x="465.09213740269024" y="475.41423232535726" as="geometry">
            <mxPoint x="-705" y="95" as="offset" />
          </mxGeometry>
        </mxCell>
        <mxCell id="rRKHZuir2uSC1CLRZ-Ho-11" value="&lt;font style=&quot;font-size: 15px;&quot;&gt;1&lt;/font&gt;" style="edgeLabel;html=1;align=center;verticalAlign=middle;resizable=0;points=[];" connectable="0" vertex="1" parent="WIyWlLk6GJQsqaUBKTNV-1">
          <mxGeometry x="465.09213740269024" y="475.41423232535726" as="geometry">
            <mxPoint x="-724" y="169" as="offset" />
          </mxGeometry>
        </mxCell>
        <mxCell id="rRKHZuir2uSC1CLRZ-Ho-12" value="1--*" style="edgeLabel;html=1;align=center;verticalAlign=middle;resizable=0;points=[];fontSize=15;" connectable="0" vertex="1" parent="WIyWlLk6GJQsqaUBKTNV-1">
          <mxGeometry x="813.2871427526347" y="177.4416361141848" as="geometry">
            <mxPoint x="-1065" y="213" as="offset" />
          </mxGeometry>
        </mxCell>
        <mxCell id="rRKHZuir2uSC1CLRZ-Ho-13" value="1--*" style="edgeLabel;html=1;align=center;verticalAlign=middle;resizable=0;points=[];fontSize=15;" connectable="0" vertex="1" parent="WIyWlLk6GJQsqaUBKTNV-1">
          <mxGeometry x="823.2871427526347" y="187.4416361141848" as="geometry">
            <mxPoint x="-1664" y="275" as="offset" />
          </mxGeometry>
        </mxCell>
      </root>
    </mxGraphModel>
  </diagram>
</mxfile>
